<mxfile host="app.diagrams.net" agent="Mozilla/5.0 (Windows NT 10.0; Win64; x64) AppleWebKit/537.36 (KHTML, like Gecko) Chrome/102.0.0.0 Safari/537.36" version="24.7.7">
  <diagram name="第 1 页" id="DuzaSTdarFtphROKjx_z">
    <mxGraphModel dx="2048" dy="676" grid="1" gridSize="10" guides="1" tooltips="1" connect="1" arrows="1" fold="1" page="1" pageScale="1" pageWidth="827" pageHeight="1169" background="#000000" math="0" shadow="0">
      <root>
        <mxCell id="0" />
        <mxCell id="1" parent="0" />
        <mxCell id="W-oPfaWnW9vSjHDt-6D7-1" value="" style="endArrow=none;html=1;rounded=0;strokeColor=#FFFFFF;strokeWidth=2;" edge="1" parent="1">
          <mxGeometry width="50" height="50" relative="1" as="geometry">
            <mxPoint y="200" as="sourcePoint" />
            <mxPoint x="840" y="200" as="targetPoint" />
          </mxGeometry>
        </mxCell>
        <mxCell id="W-oPfaWnW9vSjHDt-6D7-2" value="" style="endArrow=none;html=1;rounded=0;strokeColor=#FFFFFF;strokeWidth=2;" edge="1" parent="1">
          <mxGeometry width="50" height="50" relative="1" as="geometry">
            <mxPoint y="440" as="sourcePoint" />
            <mxPoint x="840" y="440" as="targetPoint" />
          </mxGeometry>
        </mxCell>
        <mxCell id="W-oPfaWnW9vSjHDt-6D7-33" value="" style="group" vertex="1" connectable="0" parent="1">
          <mxGeometry x="755" y="199" width="10" height="240" as="geometry" />
        </mxCell>
        <mxCell id="W-oPfaWnW9vSjHDt-6D7-3" value="" style="endArrow=none;html=1;rounded=0;strokeColor=#FFFFFF;strokeWidth=2;" edge="1" parent="W-oPfaWnW9vSjHDt-6D7-33" source="W-oPfaWnW9vSjHDt-6D7-20">
          <mxGeometry width="50" height="50" relative="1" as="geometry">
            <mxPoint x="5" y="210" as="sourcePoint" />
            <mxPoint x="5" as="targetPoint" />
          </mxGeometry>
        </mxCell>
        <mxCell id="W-oPfaWnW9vSjHDt-6D7-25" value="" style="endArrow=none;html=1;rounded=0;strokeColor=#FAFAFA;strokeWidth=2;" edge="1" parent="W-oPfaWnW9vSjHDt-6D7-33" source="W-oPfaWnW9vSjHDt-6D7-26" target="W-oPfaWnW9vSjHDt-6D7-20">
          <mxGeometry width="50" height="50" relative="1" as="geometry">
            <mxPoint x="5" y="210" as="sourcePoint" />
            <mxPoint x="5" as="targetPoint" />
          </mxGeometry>
        </mxCell>
        <mxCell id="W-oPfaWnW9vSjHDt-6D7-20" value="" style="ellipse;whiteSpace=wrap;html=1;aspect=fixed;strokeColor=none;" vertex="1" parent="W-oPfaWnW9vSjHDt-6D7-33">
          <mxGeometry y="30" width="10" height="10" as="geometry" />
        </mxCell>
        <mxCell id="W-oPfaWnW9vSjHDt-6D7-27" value="" style="endArrow=none;html=1;rounded=0;strokeColor=#FF6666;strokeWidth=2;" edge="1" parent="W-oPfaWnW9vSjHDt-6D7-33" source="W-oPfaWnW9vSjHDt-6D7-28" target="W-oPfaWnW9vSjHDt-6D7-26">
          <mxGeometry width="50" height="50" relative="1" as="geometry">
            <mxPoint x="5" y="210" as="sourcePoint" />
            <mxPoint x="5" y="30" as="targetPoint" />
          </mxGeometry>
        </mxCell>
        <mxCell id="W-oPfaWnW9vSjHDt-6D7-26" value="" style="rounded=0;whiteSpace=wrap;html=1;strokeColor=none;" vertex="1" parent="W-oPfaWnW9vSjHDt-6D7-33">
          <mxGeometry y="50" width="10" height="40" as="geometry" />
        </mxCell>
        <mxCell id="W-oPfaWnW9vSjHDt-6D7-30" value="" style="endArrow=none;html=1;rounded=0;strokeColor=#FFFFFF;strokeWidth=2;" edge="1" parent="W-oPfaWnW9vSjHDt-6D7-33" source="W-oPfaWnW9vSjHDt-6D7-31" target="W-oPfaWnW9vSjHDt-6D7-28">
          <mxGeometry width="50" height="50" relative="1" as="geometry">
            <mxPoint x="5" y="210" as="sourcePoint" />
            <mxPoint x="5" y="80" as="targetPoint" />
          </mxGeometry>
        </mxCell>
        <mxCell id="W-oPfaWnW9vSjHDt-6D7-28" value="" style="rounded=0;whiteSpace=wrap;html=1;strokeColor=none;" vertex="1" parent="W-oPfaWnW9vSjHDt-6D7-33">
          <mxGeometry y="150" width="10" height="40" as="geometry" />
        </mxCell>
        <mxCell id="W-oPfaWnW9vSjHDt-6D7-32" value="" style="endArrow=none;html=1;rounded=0;strokeColor=#FFFFFF;strokeWidth=2;" edge="1" parent="W-oPfaWnW9vSjHDt-6D7-33" target="W-oPfaWnW9vSjHDt-6D7-31">
          <mxGeometry width="50" height="50" relative="1" as="geometry">
            <mxPoint x="5" y="240" as="sourcePoint" />
            <mxPoint x="5" y="160" as="targetPoint" />
          </mxGeometry>
        </mxCell>
        <mxCell id="W-oPfaWnW9vSjHDt-6D7-31" value="" style="ellipse;whiteSpace=wrap;html=1;aspect=fixed;strokeColor=none;" vertex="1" parent="W-oPfaWnW9vSjHDt-6D7-33">
          <mxGeometry y="200" width="10" height="10" as="geometry" />
        </mxCell>
        <mxCell id="W-oPfaWnW9vSjHDt-6D7-58" value="" style="group" vertex="1" connectable="0" parent="1">
          <mxGeometry x="795" y="199" width="10" height="240" as="geometry" />
        </mxCell>
        <mxCell id="W-oPfaWnW9vSjHDt-6D7-59" value="" style="endArrow=none;html=1;rounded=0;strokeColor=#FFFFFF;strokeWidth=2;" edge="1" parent="W-oPfaWnW9vSjHDt-6D7-58" source="W-oPfaWnW9vSjHDt-6D7-61">
          <mxGeometry width="50" height="50" relative="1" as="geometry">
            <mxPoint x="5" y="210" as="sourcePoint" />
            <mxPoint x="5" as="targetPoint" />
          </mxGeometry>
        </mxCell>
        <mxCell id="W-oPfaWnW9vSjHDt-6D7-60" value="" style="endArrow=none;html=1;rounded=0;strokeColor=#FAFAFA;strokeWidth=2;" edge="1" parent="W-oPfaWnW9vSjHDt-6D7-58" source="W-oPfaWnW9vSjHDt-6D7-63" target="W-oPfaWnW9vSjHDt-6D7-61">
          <mxGeometry width="50" height="50" relative="1" as="geometry">
            <mxPoint x="5" y="210" as="sourcePoint" />
            <mxPoint x="5" as="targetPoint" />
          </mxGeometry>
        </mxCell>
        <mxCell id="W-oPfaWnW9vSjHDt-6D7-61" value="" style="ellipse;whiteSpace=wrap;html=1;aspect=fixed;strokeColor=none;" vertex="1" parent="W-oPfaWnW9vSjHDt-6D7-58">
          <mxGeometry y="30" width="10" height="10" as="geometry" />
        </mxCell>
        <mxCell id="W-oPfaWnW9vSjHDt-6D7-62" value="" style="endArrow=none;html=1;rounded=0;strokeColor=#3399FF;strokeWidth=2;" edge="1" parent="W-oPfaWnW9vSjHDt-6D7-58" source="W-oPfaWnW9vSjHDt-6D7-65" target="W-oPfaWnW9vSjHDt-6D7-63">
          <mxGeometry width="50" height="50" relative="1" as="geometry">
            <mxPoint x="5" y="210" as="sourcePoint" />
            <mxPoint x="5" y="30" as="targetPoint" />
          </mxGeometry>
        </mxCell>
        <mxCell id="W-oPfaWnW9vSjHDt-6D7-63" value="" style="rounded=0;whiteSpace=wrap;html=1;strokeColor=none;" vertex="1" parent="W-oPfaWnW9vSjHDt-6D7-58">
          <mxGeometry y="50" width="10" height="40" as="geometry" />
        </mxCell>
        <mxCell id="W-oPfaWnW9vSjHDt-6D7-64" value="" style="endArrow=none;html=1;rounded=0;strokeColor=#FFFFFF;strokeWidth=2;" edge="1" parent="W-oPfaWnW9vSjHDt-6D7-58" source="W-oPfaWnW9vSjHDt-6D7-67" target="W-oPfaWnW9vSjHDt-6D7-65">
          <mxGeometry width="50" height="50" relative="1" as="geometry">
            <mxPoint x="5" y="210" as="sourcePoint" />
            <mxPoint x="5" y="80" as="targetPoint" />
          </mxGeometry>
        </mxCell>
        <mxCell id="W-oPfaWnW9vSjHDt-6D7-65" value="" style="rounded=0;whiteSpace=wrap;html=1;strokeColor=none;" vertex="1" parent="W-oPfaWnW9vSjHDt-6D7-58">
          <mxGeometry y="150" width="10" height="40" as="geometry" />
        </mxCell>
        <mxCell id="W-oPfaWnW9vSjHDt-6D7-66" value="" style="endArrow=none;html=1;rounded=0;strokeColor=#FFFFFF;strokeWidth=2;" edge="1" parent="W-oPfaWnW9vSjHDt-6D7-58" target="W-oPfaWnW9vSjHDt-6D7-67">
          <mxGeometry width="50" height="50" relative="1" as="geometry">
            <mxPoint x="5" y="240" as="sourcePoint" />
            <mxPoint x="5" y="160" as="targetPoint" />
          </mxGeometry>
        </mxCell>
        <mxCell id="W-oPfaWnW9vSjHDt-6D7-67" value="" style="ellipse;whiteSpace=wrap;html=1;aspect=fixed;strokeColor=none;" vertex="1" parent="W-oPfaWnW9vSjHDt-6D7-58">
          <mxGeometry y="200" width="10" height="10" as="geometry" />
        </mxCell>
        <mxCell id="W-oPfaWnW9vSjHDt-6D7-83" value="" style="group" vertex="1" connectable="0" parent="1">
          <mxGeometry x="35" y="200" width="10" height="240" as="geometry" />
        </mxCell>
        <mxCell id="W-oPfaWnW9vSjHDt-6D7-84" value="" style="endArrow=none;html=1;rounded=0;strokeColor=#FFFFFF;strokeWidth=2;" edge="1" parent="W-oPfaWnW9vSjHDt-6D7-83" source="W-oPfaWnW9vSjHDt-6D7-86">
          <mxGeometry width="50" height="50" relative="1" as="geometry">
            <mxPoint x="5" y="210" as="sourcePoint" />
            <mxPoint x="5" as="targetPoint" />
          </mxGeometry>
        </mxCell>
        <mxCell id="W-oPfaWnW9vSjHDt-6D7-85" value="" style="endArrow=none;html=1;rounded=0;strokeColor=#FAFAFA;strokeWidth=2;" edge="1" parent="W-oPfaWnW9vSjHDt-6D7-83" source="W-oPfaWnW9vSjHDt-6D7-88" target="W-oPfaWnW9vSjHDt-6D7-86">
          <mxGeometry width="50" height="50" relative="1" as="geometry">
            <mxPoint x="5" y="210" as="sourcePoint" />
            <mxPoint x="5" as="targetPoint" />
          </mxGeometry>
        </mxCell>
        <mxCell id="W-oPfaWnW9vSjHDt-6D7-86" value="" style="ellipse;whiteSpace=wrap;html=1;aspect=fixed;strokeColor=none;" vertex="1" parent="W-oPfaWnW9vSjHDt-6D7-83">
          <mxGeometry y="30" width="10" height="10" as="geometry" />
        </mxCell>
        <mxCell id="W-oPfaWnW9vSjHDt-6D7-87" value="" style="endArrow=none;html=1;rounded=0;strokeColor=#FF6666;strokeWidth=2;" edge="1" parent="W-oPfaWnW9vSjHDt-6D7-83" source="W-oPfaWnW9vSjHDt-6D7-90" target="W-oPfaWnW9vSjHDt-6D7-88">
          <mxGeometry width="50" height="50" relative="1" as="geometry">
            <mxPoint x="5" y="210" as="sourcePoint" />
            <mxPoint x="5" y="30" as="targetPoint" />
          </mxGeometry>
        </mxCell>
        <mxCell id="W-oPfaWnW9vSjHDt-6D7-88" value="" style="rounded=0;whiteSpace=wrap;html=1;strokeColor=none;" vertex="1" parent="W-oPfaWnW9vSjHDt-6D7-83">
          <mxGeometry y="50" width="10" height="40" as="geometry" />
        </mxCell>
        <mxCell id="W-oPfaWnW9vSjHDt-6D7-89" value="" style="endArrow=none;html=1;rounded=0;strokeColor=#FFFFFF;strokeWidth=2;" edge="1" parent="W-oPfaWnW9vSjHDt-6D7-83" source="W-oPfaWnW9vSjHDt-6D7-92" target="W-oPfaWnW9vSjHDt-6D7-90">
          <mxGeometry width="50" height="50" relative="1" as="geometry">
            <mxPoint x="5" y="210" as="sourcePoint" />
            <mxPoint x="5" y="80" as="targetPoint" />
          </mxGeometry>
        </mxCell>
        <mxCell id="W-oPfaWnW9vSjHDt-6D7-90" value="" style="rounded=0;whiteSpace=wrap;html=1;strokeColor=none;" vertex="1" parent="W-oPfaWnW9vSjHDt-6D7-83">
          <mxGeometry y="150" width="10" height="40" as="geometry" />
        </mxCell>
        <mxCell id="W-oPfaWnW9vSjHDt-6D7-91" value="" style="endArrow=none;html=1;rounded=0;strokeColor=#FFFFFF;strokeWidth=2;" edge="1" parent="W-oPfaWnW9vSjHDt-6D7-83" target="W-oPfaWnW9vSjHDt-6D7-92">
          <mxGeometry width="50" height="50" relative="1" as="geometry">
            <mxPoint x="5" y="240" as="sourcePoint" />
            <mxPoint x="5" y="160" as="targetPoint" />
          </mxGeometry>
        </mxCell>
        <mxCell id="W-oPfaWnW9vSjHDt-6D7-92" value="" style="ellipse;whiteSpace=wrap;html=1;aspect=fixed;strokeColor=none;" vertex="1" parent="W-oPfaWnW9vSjHDt-6D7-83">
          <mxGeometry y="200" width="10" height="10" as="geometry" />
        </mxCell>
        <mxCell id="W-oPfaWnW9vSjHDt-6D7-93" value="&lt;font color=&quot;#ffffff&quot;&gt;关&lt;/font&gt;" style="text;html=1;align=center;verticalAlign=middle;whiteSpace=wrap;rounded=0;" vertex="1" parent="W-oPfaWnW9vSjHDt-6D7-83">
          <mxGeometry x="-21" y="110" width="35" height="20" as="geometry" />
        </mxCell>
        <mxCell id="W-oPfaWnW9vSjHDt-6D7-94" value="" style="group" vertex="1" connectable="0" parent="1">
          <mxGeometry x="75" y="200" width="10" height="240" as="geometry" />
        </mxCell>
        <mxCell id="W-oPfaWnW9vSjHDt-6D7-95" value="" style="endArrow=none;html=1;rounded=0;strokeColor=#FFFFFF;strokeWidth=2;" edge="1" parent="W-oPfaWnW9vSjHDt-6D7-94" source="W-oPfaWnW9vSjHDt-6D7-97">
          <mxGeometry width="50" height="50" relative="1" as="geometry">
            <mxPoint x="5" y="210" as="sourcePoint" />
            <mxPoint x="5" as="targetPoint" />
          </mxGeometry>
        </mxCell>
        <mxCell id="W-oPfaWnW9vSjHDt-6D7-96" value="" style="endArrow=none;html=1;rounded=0;strokeColor=#FAFAFA;strokeWidth=2;" edge="1" parent="W-oPfaWnW9vSjHDt-6D7-94" source="W-oPfaWnW9vSjHDt-6D7-99" target="W-oPfaWnW9vSjHDt-6D7-97">
          <mxGeometry width="50" height="50" relative="1" as="geometry">
            <mxPoint x="5" y="210" as="sourcePoint" />
            <mxPoint x="5" as="targetPoint" />
          </mxGeometry>
        </mxCell>
        <mxCell id="W-oPfaWnW9vSjHDt-6D7-97" value="" style="ellipse;whiteSpace=wrap;html=1;aspect=fixed;strokeColor=none;" vertex="1" parent="W-oPfaWnW9vSjHDt-6D7-94">
          <mxGeometry y="30" width="10" height="10" as="geometry" />
        </mxCell>
        <mxCell id="W-oPfaWnW9vSjHDt-6D7-98" value="" style="endArrow=none;html=1;rounded=0;strokeColor=#3399FF;strokeWidth=2;" edge="1" parent="W-oPfaWnW9vSjHDt-6D7-94" source="W-oPfaWnW9vSjHDt-6D7-101" target="W-oPfaWnW9vSjHDt-6D7-99">
          <mxGeometry width="50" height="50" relative="1" as="geometry">
            <mxPoint x="5" y="210" as="sourcePoint" />
            <mxPoint x="5" y="30" as="targetPoint" />
          </mxGeometry>
        </mxCell>
        <mxCell id="W-oPfaWnW9vSjHDt-6D7-99" value="" style="rounded=0;whiteSpace=wrap;html=1;strokeColor=none;" vertex="1" parent="W-oPfaWnW9vSjHDt-6D7-94">
          <mxGeometry y="50" width="10" height="40" as="geometry" />
        </mxCell>
        <mxCell id="W-oPfaWnW9vSjHDt-6D7-100" value="" style="endArrow=none;html=1;rounded=0;strokeColor=#FFFFFF;strokeWidth=2;" edge="1" parent="W-oPfaWnW9vSjHDt-6D7-94" source="W-oPfaWnW9vSjHDt-6D7-103" target="W-oPfaWnW9vSjHDt-6D7-101">
          <mxGeometry width="50" height="50" relative="1" as="geometry">
            <mxPoint x="5" y="210" as="sourcePoint" />
            <mxPoint x="5" y="80" as="targetPoint" />
          </mxGeometry>
        </mxCell>
        <mxCell id="W-oPfaWnW9vSjHDt-6D7-101" value="" style="rounded=0;whiteSpace=wrap;html=1;strokeColor=none;" vertex="1" parent="W-oPfaWnW9vSjHDt-6D7-94">
          <mxGeometry y="150" width="10" height="40" as="geometry" />
        </mxCell>
        <mxCell id="W-oPfaWnW9vSjHDt-6D7-102" value="" style="endArrow=none;html=1;rounded=0;strokeColor=#FFFFFF;strokeWidth=2;" edge="1" parent="W-oPfaWnW9vSjHDt-6D7-94" target="W-oPfaWnW9vSjHDt-6D7-103">
          <mxGeometry width="50" height="50" relative="1" as="geometry">
            <mxPoint x="5" y="240" as="sourcePoint" />
            <mxPoint x="5" y="160" as="targetPoint" />
          </mxGeometry>
        </mxCell>
        <mxCell id="W-oPfaWnW9vSjHDt-6D7-103" value="" style="ellipse;whiteSpace=wrap;html=1;aspect=fixed;strokeColor=none;" vertex="1" parent="W-oPfaWnW9vSjHDt-6D7-94">
          <mxGeometry y="200" width="10" height="10" as="geometry" />
        </mxCell>
        <mxCell id="W-oPfaWnW9vSjHDt-6D7-112" value="" style="group" vertex="1" connectable="0" parent="1">
          <mxGeometry x="610" y="200" width="60" height="240" as="geometry" />
        </mxCell>
        <mxCell id="W-oPfaWnW9vSjHDt-6D7-107" value="" style="rounded=0;whiteSpace=wrap;html=1;fillColor=none;strokeColor=#FAFAFA;strokeWidth=2;" vertex="1" parent="W-oPfaWnW9vSjHDt-6D7-112">
          <mxGeometry width="60" height="20" as="geometry" />
        </mxCell>
        <mxCell id="W-oPfaWnW9vSjHDt-6D7-108" value="" style="rounded=0;whiteSpace=wrap;html=1;fillColor=none;strokeColor=#FAFAFA;strokeWidth=2;" vertex="1" parent="W-oPfaWnW9vSjHDt-6D7-112">
          <mxGeometry x="20" width="20" height="115" as="geometry" />
        </mxCell>
        <mxCell id="W-oPfaWnW9vSjHDt-6D7-109" value="" style="rounded=0;whiteSpace=wrap;html=1;fillColor=none;strokeColor=#FAFAFA;strokeWidth=2;" vertex="1" parent="W-oPfaWnW9vSjHDt-6D7-112">
          <mxGeometry y="220" width="60" height="20" as="geometry" />
        </mxCell>
        <mxCell id="W-oPfaWnW9vSjHDt-6D7-110" value="" style="rounded=0;whiteSpace=wrap;html=1;fillColor=none;strokeColor=#FAFAFA;strokeWidth=2;" vertex="1" parent="W-oPfaWnW9vSjHDt-6D7-112">
          <mxGeometry x="20" y="125" width="20" height="115" as="geometry" />
        </mxCell>
        <mxCell id="W-oPfaWnW9vSjHDt-6D7-113" value="" style="group" vertex="1" connectable="0" parent="1">
          <mxGeometry x="170" y="200" width="60" height="240" as="geometry" />
        </mxCell>
        <mxCell id="W-oPfaWnW9vSjHDt-6D7-114" value="" style="rounded=0;whiteSpace=wrap;html=1;fillColor=none;strokeColor=#FAFAFA;strokeWidth=2;" vertex="1" parent="W-oPfaWnW9vSjHDt-6D7-113">
          <mxGeometry width="60" height="20" as="geometry" />
        </mxCell>
        <mxCell id="W-oPfaWnW9vSjHDt-6D7-115" value="" style="rounded=0;whiteSpace=wrap;html=1;fillColor=none;strokeColor=#FAFAFA;strokeWidth=2;" vertex="1" parent="W-oPfaWnW9vSjHDt-6D7-113">
          <mxGeometry x="20" width="20" height="115" as="geometry" />
        </mxCell>
        <mxCell id="W-oPfaWnW9vSjHDt-6D7-116" value="" style="rounded=0;whiteSpace=wrap;html=1;fillColor=none;strokeColor=#FAFAFA;strokeWidth=2;" vertex="1" parent="W-oPfaWnW9vSjHDt-6D7-113">
          <mxGeometry y="220" width="60" height="20" as="geometry" />
        </mxCell>
        <mxCell id="W-oPfaWnW9vSjHDt-6D7-117" value="" style="rounded=0;whiteSpace=wrap;html=1;fillColor=none;strokeColor=#FAFAFA;strokeWidth=2;" vertex="1" parent="W-oPfaWnW9vSjHDt-6D7-113">
          <mxGeometry x="20" y="125" width="20" height="115" as="geometry" />
        </mxCell>
        <mxCell id="W-oPfaWnW9vSjHDt-6D7-120" value="" style="group" vertex="1" connectable="0" parent="1">
          <mxGeometry x="435" y="200" width="10" height="240" as="geometry" />
        </mxCell>
        <mxCell id="W-oPfaWnW9vSjHDt-6D7-121" value="" style="endArrow=none;html=1;rounded=0;strokeColor=#FFFFFF;strokeWidth=2;" edge="1" parent="W-oPfaWnW9vSjHDt-6D7-120" source="W-oPfaWnW9vSjHDt-6D7-123">
          <mxGeometry width="50" height="50" relative="1" as="geometry">
            <mxPoint x="5" y="210" as="sourcePoint" />
            <mxPoint x="5" as="targetPoint" />
          </mxGeometry>
        </mxCell>
        <mxCell id="W-oPfaWnW9vSjHDt-6D7-122" value="" style="endArrow=none;html=1;rounded=0;strokeColor=#FAFAFA;strokeWidth=2;" edge="1" parent="W-oPfaWnW9vSjHDt-6D7-120" source="W-oPfaWnW9vSjHDt-6D7-125" target="W-oPfaWnW9vSjHDt-6D7-123">
          <mxGeometry width="50" height="50" relative="1" as="geometry">
            <mxPoint x="5" y="210" as="sourcePoint" />
            <mxPoint x="5" as="targetPoint" />
          </mxGeometry>
        </mxCell>
        <mxCell id="W-oPfaWnW9vSjHDt-6D7-123" value="" style="ellipse;whiteSpace=wrap;html=1;aspect=fixed;strokeColor=none;" vertex="1" parent="W-oPfaWnW9vSjHDt-6D7-120">
          <mxGeometry y="30" width="10" height="10" as="geometry" />
        </mxCell>
        <mxCell id="W-oPfaWnW9vSjHDt-6D7-124" value="" style="endArrow=none;html=1;rounded=0;strokeColor=#3399FF;strokeWidth=2;" edge="1" parent="W-oPfaWnW9vSjHDt-6D7-120" source="W-oPfaWnW9vSjHDt-6D7-127" target="W-oPfaWnW9vSjHDt-6D7-125">
          <mxGeometry width="50" height="50" relative="1" as="geometry">
            <mxPoint x="5" y="210" as="sourcePoint" />
            <mxPoint x="5" y="30" as="targetPoint" />
          </mxGeometry>
        </mxCell>
        <mxCell id="W-oPfaWnW9vSjHDt-6D7-125" value="" style="rounded=0;whiteSpace=wrap;html=1;strokeColor=none;" vertex="1" parent="W-oPfaWnW9vSjHDt-6D7-120">
          <mxGeometry y="50" width="10" height="40" as="geometry" />
        </mxCell>
        <mxCell id="W-oPfaWnW9vSjHDt-6D7-126" value="" style="endArrow=none;html=1;rounded=0;strokeColor=#FFFFFF;strokeWidth=2;" edge="1" parent="W-oPfaWnW9vSjHDt-6D7-120" source="W-oPfaWnW9vSjHDt-6D7-129" target="W-oPfaWnW9vSjHDt-6D7-127">
          <mxGeometry width="50" height="50" relative="1" as="geometry">
            <mxPoint x="5" y="210" as="sourcePoint" />
            <mxPoint x="5" y="80" as="targetPoint" />
          </mxGeometry>
        </mxCell>
        <mxCell id="W-oPfaWnW9vSjHDt-6D7-127" value="" style="rounded=0;whiteSpace=wrap;html=1;strokeColor=none;" vertex="1" parent="W-oPfaWnW9vSjHDt-6D7-120">
          <mxGeometry y="150" width="10" height="40" as="geometry" />
        </mxCell>
        <mxCell id="W-oPfaWnW9vSjHDt-6D7-128" value="" style="endArrow=none;html=1;rounded=0;strokeColor=#FFFFFF;strokeWidth=2;" edge="1" parent="W-oPfaWnW9vSjHDt-6D7-120" target="W-oPfaWnW9vSjHDt-6D7-129">
          <mxGeometry width="50" height="50" relative="1" as="geometry">
            <mxPoint x="5" y="240" as="sourcePoint" />
            <mxPoint x="5" y="160" as="targetPoint" />
          </mxGeometry>
        </mxCell>
        <mxCell id="W-oPfaWnW9vSjHDt-6D7-129" value="" style="ellipse;whiteSpace=wrap;html=1;aspect=fixed;strokeColor=none;" vertex="1" parent="W-oPfaWnW9vSjHDt-6D7-120">
          <mxGeometry y="200" width="10" height="10" as="geometry" />
        </mxCell>
        <mxCell id="W-oPfaWnW9vSjHDt-6D7-132" value="" style="group" vertex="1" connectable="0" parent="1">
          <mxGeometry x="395" y="200" width="10" height="240" as="geometry" />
        </mxCell>
        <mxCell id="W-oPfaWnW9vSjHDt-6D7-133" value="" style="endArrow=none;html=1;rounded=0;strokeColor=#FFFFFF;strokeWidth=2;" edge="1" parent="W-oPfaWnW9vSjHDt-6D7-132" source="W-oPfaWnW9vSjHDt-6D7-135">
          <mxGeometry width="50" height="50" relative="1" as="geometry">
            <mxPoint x="5" y="210" as="sourcePoint" />
            <mxPoint x="5" as="targetPoint" />
          </mxGeometry>
        </mxCell>
        <mxCell id="W-oPfaWnW9vSjHDt-6D7-134" value="" style="endArrow=none;html=1;rounded=0;strokeColor=#FAFAFA;strokeWidth=2;" edge="1" parent="W-oPfaWnW9vSjHDt-6D7-132" source="W-oPfaWnW9vSjHDt-6D7-137" target="W-oPfaWnW9vSjHDt-6D7-135">
          <mxGeometry width="50" height="50" relative="1" as="geometry">
            <mxPoint x="5" y="210" as="sourcePoint" />
            <mxPoint x="5" as="targetPoint" />
          </mxGeometry>
        </mxCell>
        <mxCell id="W-oPfaWnW9vSjHDt-6D7-135" value="" style="ellipse;whiteSpace=wrap;html=1;aspect=fixed;strokeColor=none;" vertex="1" parent="W-oPfaWnW9vSjHDt-6D7-132">
          <mxGeometry y="30" width="10" height="10" as="geometry" />
        </mxCell>
        <mxCell id="W-oPfaWnW9vSjHDt-6D7-136" value="" style="endArrow=none;html=1;rounded=0;strokeColor=#3399FF;strokeWidth=2;" edge="1" parent="W-oPfaWnW9vSjHDt-6D7-132" source="W-oPfaWnW9vSjHDt-6D7-139" target="W-oPfaWnW9vSjHDt-6D7-137">
          <mxGeometry width="50" height="50" relative="1" as="geometry">
            <mxPoint x="5" y="210" as="sourcePoint" />
            <mxPoint x="5" y="30" as="targetPoint" />
          </mxGeometry>
        </mxCell>
        <mxCell id="W-oPfaWnW9vSjHDt-6D7-137" value="" style="rounded=0;whiteSpace=wrap;html=1;strokeColor=none;" vertex="1" parent="W-oPfaWnW9vSjHDt-6D7-132">
          <mxGeometry y="50" width="10" height="40" as="geometry" />
        </mxCell>
        <mxCell id="W-oPfaWnW9vSjHDt-6D7-138" value="" style="endArrow=none;html=1;rounded=0;strokeColor=#FFFFFF;strokeWidth=2;" edge="1" parent="W-oPfaWnW9vSjHDt-6D7-132" source="W-oPfaWnW9vSjHDt-6D7-141" target="W-oPfaWnW9vSjHDt-6D7-139">
          <mxGeometry width="50" height="50" relative="1" as="geometry">
            <mxPoint x="5" y="210" as="sourcePoint" />
            <mxPoint x="5" y="80" as="targetPoint" />
          </mxGeometry>
        </mxCell>
        <mxCell id="W-oPfaWnW9vSjHDt-6D7-139" value="" style="rounded=0;whiteSpace=wrap;html=1;strokeColor=none;" vertex="1" parent="W-oPfaWnW9vSjHDt-6D7-132">
          <mxGeometry y="150" width="10" height="40" as="geometry" />
        </mxCell>
        <mxCell id="W-oPfaWnW9vSjHDt-6D7-140" value="" style="endArrow=none;html=1;rounded=0;strokeColor=#FFFFFF;strokeWidth=2;" edge="1" parent="W-oPfaWnW9vSjHDt-6D7-132" target="W-oPfaWnW9vSjHDt-6D7-141">
          <mxGeometry width="50" height="50" relative="1" as="geometry">
            <mxPoint x="5" y="240" as="sourcePoint" />
            <mxPoint x="5" y="160" as="targetPoint" />
          </mxGeometry>
        </mxCell>
        <mxCell id="W-oPfaWnW9vSjHDt-6D7-141" value="" style="ellipse;whiteSpace=wrap;html=1;aspect=fixed;strokeColor=none;" vertex="1" parent="W-oPfaWnW9vSjHDt-6D7-132">
          <mxGeometry y="200" width="10" height="10" as="geometry" />
        </mxCell>
        <mxCell id="W-oPfaWnW9vSjHDt-6D7-142" value="&lt;font color=&quot;#ffffff&quot;&gt;开&lt;/font&gt;" style="text;html=1;align=center;verticalAlign=middle;whiteSpace=wrap;rounded=0;" vertex="1" parent="W-oPfaWnW9vSjHDt-6D7-132">
          <mxGeometry x="-21.5" y="117" width="35" height="20" as="geometry" />
        </mxCell>
        <mxCell id="W-oPfaWnW9vSjHDt-6D7-145" value="" style="group" vertex="1" connectable="0" parent="1">
          <mxGeometry x="475" y="200" width="10" height="240" as="geometry" />
        </mxCell>
        <mxCell id="W-oPfaWnW9vSjHDt-6D7-146" value="" style="endArrow=none;html=1;rounded=0;strokeColor=#FFFFFF;strokeWidth=2;" edge="1" parent="W-oPfaWnW9vSjHDt-6D7-145" source="W-oPfaWnW9vSjHDt-6D7-148">
          <mxGeometry width="50" height="50" relative="1" as="geometry">
            <mxPoint x="5" y="210" as="sourcePoint" />
            <mxPoint x="5" as="targetPoint" />
          </mxGeometry>
        </mxCell>
        <mxCell id="W-oPfaWnW9vSjHDt-6D7-147" value="" style="endArrow=none;html=1;rounded=0;strokeColor=#FAFAFA;strokeWidth=2;" edge="1" parent="W-oPfaWnW9vSjHDt-6D7-145" source="W-oPfaWnW9vSjHDt-6D7-150" target="W-oPfaWnW9vSjHDt-6D7-148">
          <mxGeometry width="50" height="50" relative="1" as="geometry">
            <mxPoint x="5" y="210" as="sourcePoint" />
            <mxPoint x="5" as="targetPoint" />
          </mxGeometry>
        </mxCell>
        <mxCell id="W-oPfaWnW9vSjHDt-6D7-148" value="" style="ellipse;whiteSpace=wrap;html=1;aspect=fixed;strokeColor=none;" vertex="1" parent="W-oPfaWnW9vSjHDt-6D7-145">
          <mxGeometry y="30" width="10" height="10" as="geometry" />
        </mxCell>
        <mxCell id="W-oPfaWnW9vSjHDt-6D7-149" value="" style="endArrow=none;html=1;rounded=0;strokeColor=#FF6666;strokeWidth=2;" edge="1" parent="W-oPfaWnW9vSjHDt-6D7-145" source="W-oPfaWnW9vSjHDt-6D7-152" target="W-oPfaWnW9vSjHDt-6D7-150">
          <mxGeometry width="50" height="50" relative="1" as="geometry">
            <mxPoint x="5" y="210" as="sourcePoint" />
            <mxPoint x="5" y="30" as="targetPoint" />
          </mxGeometry>
        </mxCell>
        <mxCell id="W-oPfaWnW9vSjHDt-6D7-150" value="" style="rounded=0;whiteSpace=wrap;html=1;strokeColor=none;" vertex="1" parent="W-oPfaWnW9vSjHDt-6D7-145">
          <mxGeometry y="50" width="10" height="40" as="geometry" />
        </mxCell>
        <mxCell id="W-oPfaWnW9vSjHDt-6D7-151" value="" style="endArrow=none;html=1;rounded=0;strokeColor=#FFFFFF;strokeWidth=2;" edge="1" parent="W-oPfaWnW9vSjHDt-6D7-145" source="W-oPfaWnW9vSjHDt-6D7-154" target="W-oPfaWnW9vSjHDt-6D7-152">
          <mxGeometry width="50" height="50" relative="1" as="geometry">
            <mxPoint x="5" y="210" as="sourcePoint" />
            <mxPoint x="5" y="80" as="targetPoint" />
          </mxGeometry>
        </mxCell>
        <mxCell id="W-oPfaWnW9vSjHDt-6D7-152" value="" style="rounded=0;whiteSpace=wrap;html=1;strokeColor=none;" vertex="1" parent="W-oPfaWnW9vSjHDt-6D7-145">
          <mxGeometry y="150" width="10" height="40" as="geometry" />
        </mxCell>
        <mxCell id="W-oPfaWnW9vSjHDt-6D7-153" value="" style="endArrow=none;html=1;rounded=0;strokeColor=#FFFFFF;strokeWidth=2;" edge="1" parent="W-oPfaWnW9vSjHDt-6D7-145" target="W-oPfaWnW9vSjHDt-6D7-154">
          <mxGeometry width="50" height="50" relative="1" as="geometry">
            <mxPoint x="5" y="240" as="sourcePoint" />
            <mxPoint x="5" y="160" as="targetPoint" />
          </mxGeometry>
        </mxCell>
        <mxCell id="W-oPfaWnW9vSjHDt-6D7-154" value="" style="ellipse;whiteSpace=wrap;html=1;aspect=fixed;strokeColor=none;" vertex="1" parent="W-oPfaWnW9vSjHDt-6D7-145">
          <mxGeometry y="200" width="10" height="10" as="geometry" />
        </mxCell>
        <mxCell id="W-oPfaWnW9vSjHDt-6D7-156" value="" style="group" vertex="1" connectable="0" parent="1">
          <mxGeometry x="355" y="200" width="10" height="240" as="geometry" />
        </mxCell>
        <mxCell id="W-oPfaWnW9vSjHDt-6D7-157" value="" style="endArrow=none;html=1;rounded=0;strokeColor=#FFFFFF;strokeWidth=2;" edge="1" parent="W-oPfaWnW9vSjHDt-6D7-156" source="W-oPfaWnW9vSjHDt-6D7-159">
          <mxGeometry width="50" height="50" relative="1" as="geometry">
            <mxPoint x="5" y="210" as="sourcePoint" />
            <mxPoint x="5" as="targetPoint" />
          </mxGeometry>
        </mxCell>
        <mxCell id="W-oPfaWnW9vSjHDt-6D7-158" value="" style="endArrow=none;html=1;rounded=0;strokeColor=#FAFAFA;strokeWidth=2;" edge="1" parent="W-oPfaWnW9vSjHDt-6D7-156" source="W-oPfaWnW9vSjHDt-6D7-161" target="W-oPfaWnW9vSjHDt-6D7-159">
          <mxGeometry width="50" height="50" relative="1" as="geometry">
            <mxPoint x="5" y="210" as="sourcePoint" />
            <mxPoint x="5" as="targetPoint" />
          </mxGeometry>
        </mxCell>
        <mxCell id="W-oPfaWnW9vSjHDt-6D7-159" value="" style="ellipse;whiteSpace=wrap;html=1;aspect=fixed;strokeColor=none;" vertex="1" parent="W-oPfaWnW9vSjHDt-6D7-156">
          <mxGeometry y="30" width="10" height="10" as="geometry" />
        </mxCell>
        <mxCell id="W-oPfaWnW9vSjHDt-6D7-160" value="" style="endArrow=none;html=1;rounded=0;strokeColor=#FF6666;strokeWidth=2;" edge="1" parent="W-oPfaWnW9vSjHDt-6D7-156" source="W-oPfaWnW9vSjHDt-6D7-163" target="W-oPfaWnW9vSjHDt-6D7-161">
          <mxGeometry width="50" height="50" relative="1" as="geometry">
            <mxPoint x="5" y="210" as="sourcePoint" />
            <mxPoint x="5" y="30" as="targetPoint" />
          </mxGeometry>
        </mxCell>
        <mxCell id="W-oPfaWnW9vSjHDt-6D7-161" value="" style="rounded=0;whiteSpace=wrap;html=1;strokeColor=none;" vertex="1" parent="W-oPfaWnW9vSjHDt-6D7-156">
          <mxGeometry y="50" width="10" height="40" as="geometry" />
        </mxCell>
        <mxCell id="W-oPfaWnW9vSjHDt-6D7-162" value="" style="endArrow=none;html=1;rounded=0;strokeColor=#FFFFFF;strokeWidth=2;" edge="1" parent="W-oPfaWnW9vSjHDt-6D7-156" source="W-oPfaWnW9vSjHDt-6D7-165" target="W-oPfaWnW9vSjHDt-6D7-163">
          <mxGeometry width="50" height="50" relative="1" as="geometry">
            <mxPoint x="5" y="210" as="sourcePoint" />
            <mxPoint x="5" y="80" as="targetPoint" />
          </mxGeometry>
        </mxCell>
        <mxCell id="W-oPfaWnW9vSjHDt-6D7-163" value="" style="rounded=0;whiteSpace=wrap;html=1;strokeColor=none;" vertex="1" parent="W-oPfaWnW9vSjHDt-6D7-156">
          <mxGeometry y="150" width="10" height="40" as="geometry" />
        </mxCell>
        <mxCell id="W-oPfaWnW9vSjHDt-6D7-164" value="" style="endArrow=none;html=1;rounded=0;strokeColor=#FFFFFF;strokeWidth=2;" edge="1" parent="W-oPfaWnW9vSjHDt-6D7-156" target="W-oPfaWnW9vSjHDt-6D7-165">
          <mxGeometry width="50" height="50" relative="1" as="geometry">
            <mxPoint x="5" y="240" as="sourcePoint" />
            <mxPoint x="5" y="160" as="targetPoint" />
          </mxGeometry>
        </mxCell>
        <mxCell id="W-oPfaWnW9vSjHDt-6D7-165" value="" style="ellipse;whiteSpace=wrap;html=1;aspect=fixed;strokeColor=none;" vertex="1" parent="W-oPfaWnW9vSjHDt-6D7-156">
          <mxGeometry y="200" width="10" height="10" as="geometry" />
        </mxCell>
        <mxCell id="W-oPfaWnW9vSjHDt-6D7-166" value="&lt;font color=&quot;#ffffff&quot;&gt;关&lt;/font&gt;" style="text;html=1;align=center;verticalAlign=middle;whiteSpace=wrap;rounded=0;" vertex="1" parent="W-oPfaWnW9vSjHDt-6D7-156">
          <mxGeometry x="-21.5" y="117" width="35" height="20" as="geometry" />
        </mxCell>
        <mxCell id="W-oPfaWnW9vSjHDt-6D7-104" value="&lt;font color=&quot;#ffffff&quot;&gt;开&lt;/font&gt;" style="text;html=1;align=center;verticalAlign=middle;whiteSpace=wrap;rounded=0;" vertex="1" parent="1">
          <mxGeometry x="71" y="310" width="35" height="20" as="geometry" />
        </mxCell>
        <mxCell id="W-oPfaWnW9vSjHDt-6D7-44" value="&lt;font color=&quot;#ffffff&quot;&gt;关&lt;/font&gt;" style="text;html=1;align=center;verticalAlign=middle;whiteSpace=wrap;rounded=0;" vertex="1" parent="1">
          <mxGeometry x="734" y="309" width="35" height="20" as="geometry" />
        </mxCell>
        <mxCell id="W-oPfaWnW9vSjHDt-6D7-68" value="&lt;font color=&quot;#ffffff&quot;&gt;开&lt;/font&gt;" style="text;html=1;align=center;verticalAlign=middle;whiteSpace=wrap;rounded=0;" vertex="1" parent="1">
          <mxGeometry x="791" y="309" width="35" height="20" as="geometry" />
        </mxCell>
        <mxCell id="W-oPfaWnW9vSjHDt-6D7-130" value="&lt;font color=&quot;#ffffff&quot;&gt;开&lt;/font&gt;" style="text;html=1;align=center;verticalAlign=middle;whiteSpace=wrap;rounded=0;" vertex="1" parent="1">
          <mxGeometry x="431" y="302" width="35" height="20" as="geometry" />
        </mxCell>
        <mxCell id="W-oPfaWnW9vSjHDt-6D7-155" value="&lt;font color=&quot;#ffffff&quot;&gt;关&lt;/font&gt;" style="text;html=1;align=center;verticalAlign=middle;whiteSpace=wrap;rounded=0;" vertex="1" parent="1">
          <mxGeometry x="471" y="302" width="35" height="20" as="geometry" />
        </mxCell>
      </root>
    </mxGraphModel>
  </diagram>
</mxfile>
